<?xml version="1.0" encoding="UTF-8" standalone="no"?>
<!DOCTYPE svg PUBLIC "-//W3C//DTD SVG 1.1//EN" "http://www.w3.org/Graphics/SVG/1.1/DTD/svg11.dtd">
<svg width="100%" height="100%" viewBox="0 0 38 38" version="1.1" xmlns="http://www.w3.org/2000/svg" xmlns:xlink="http://www.w3.org/1999/xlink" xml:space="preserve" xmlns:serif="http://www.serif.com/" style="fill-rule:evenodd;clip-rule:evenodd;stroke-linejoin:round;stroke-miterlimit:2;">
    <g transform="matrix(1,0,0,1,-36.12,-48.62)">
        <path d="M68.35,54.15C64.93,50.73 60.21,48.62 55,48.62C49.79,48.62 45.06,50.73 41.65,54.15C38.23,57.57 36.12,62.29 36.12,67.5C36.12,72.71 38.23,77.44 41.65,80.85C45.07,84.27 49.79,86.38 55,86.38C60.21,86.38 64.94,84.27 68.35,80.85C71.77,77.43 73.88,72.71 73.88,67.5C73.88,62.29 71.77,57.56 68.35,54.15Z" style="fill:white;"/>
        <path d="M66.93,64.18L64.37,64.18C64.26,63.86 64.12,63.53 63.97,63.21L65.78,61.4C66.3,60.88 66.3,60.04 65.78,59.53L62.96,56.71C62.44,56.19 61.6,56.19 61.09,56.71L59.28,58.52C58.96,58.37 58.64,58.23 58.31,58.12L58.31,55.56C58.31,54.83 57.71,54.23 56.98,54.23L53,54.23C52.27,54.23 51.67,54.83 51.67,55.56L51.67,58.12C51.35,58.23 51.02,58.37 50.7,58.52L48.89,56.71C48.37,56.19 47.53,56.19 47.02,56.71L44.2,59.53C43.68,60.05 43.68,60.89 44.2,61.4L46.01,63.21C45.86,63.53 45.72,63.85 45.61,64.18L43.05,64.18C42.32,64.18 41.72,64.78 41.72,65.51L41.72,69.49C41.72,70.22 42.32,70.82 43.05,70.82L45.61,70.82C45.72,71.14 45.86,71.47 46.01,71.79L44.2,73.6C43.68,74.12 43.68,74.96 44.2,75.47L47.02,78.29C47.54,78.81 48.38,78.81 48.89,78.29L50.7,76.48C51.02,76.63 51.34,76.77 51.67,76.88L51.67,79.44C51.67,80.17 52.27,80.77 53,80.77L56.98,80.77C57.71,80.77 58.31,80.17 58.31,79.44L58.31,76.88C58.63,76.77 58.96,76.63 59.28,76.48L61.09,78.29C61.61,78.81 62.45,78.81 62.96,78.29L65.78,75.47C66.3,74.95 66.3,74.11 65.78,73.6L63.97,71.79C64.12,71.47 64.26,71.15 64.37,70.82L66.93,70.82C67.66,70.82 68.26,70.22 68.26,69.49L68.26,68.83C68.26,68.47 67.96,68.17 67.6,68.17C67.24,68.17 66.94,68.47 66.94,68.83L66.94,69.49L63.9,69.49C63.61,69.49 63.34,69.68 63.26,69.97C63.1,70.53 62.88,71.08 62.59,71.61C62.45,71.87 62.5,72.19 62.7,72.39L64.85,74.54L62.03,77.36L59.88,75.21C59.67,75 59.36,74.96 59.1,75.1C58.57,75.39 58.02,75.61 57.46,75.77C57.17,75.85 56.98,76.11 56.98,76.41L56.98,79.45L53,79.45L53,76.41C53,76.12 52.81,75.85 52.52,75.77C51.96,75.61 51.41,75.39 50.88,75.1C50.62,74.96 50.3,75.01 50.1,75.21L47.95,77.36L45.13,74.54L47.28,72.39C47.49,72.18 47.53,71.87 47.39,71.61C47.1,71.08 46.88,70.53 46.72,69.97C46.64,69.68 46.38,69.49 46.08,69.49L43.04,69.49L43.04,65.51L46.08,65.51C46.37,65.51 46.64,65.32 46.72,65.03C46.88,64.47 47.1,63.92 47.39,63.39C47.53,63.13 47.48,62.81 47.28,62.61L45.13,60.46L47.95,57.64L50.1,59.79C50.31,60 50.62,60.04 50.88,59.9C51.41,59.61 51.96,59.39 52.52,59.23C52.81,59.15 53,58.89 53,58.59L53,55.55L56.98,55.55L56.98,58.59C56.98,58.88 57.17,59.15 57.46,59.23C58.02,59.39 58.57,59.61 59.1,59.9C59.36,60.04 59.68,59.99 59.88,59.79L62.03,57.64L64.85,60.46L62.7,62.61C62.49,62.82 62.45,63.13 62.59,63.39C62.88,63.92 63.1,64.47 63.26,65.03C63.34,65.32 63.6,65.51 63.9,65.51L66.94,65.51L66.94,66.17C66.94,66.53 67.24,66.83 67.6,66.83C67.96,66.83 68.26,66.53 68.26,66.17L68.26,65.51C68.26,64.78 67.66,64.18 66.93,64.18Z" style="fill-rule:nonzero;"/>
        <path d="M51.39,64.52C51.08,64.33 50.67,64.42 50.48,64.73C49.97,65.55 49.7,66.51 49.7,67.49C49.7,70.41 52.08,72.79 55,72.79C57.92,72.79 60.3,70.41 60.3,67.49C60.3,64.57 57.92,62.19 55,62.19C54.2,62.19 53.42,62.37 52.73,62.71C52.4,62.87 52.27,63.27 52.43,63.6C52.59,63.93 52.99,64.06 53.32,63.9C53.83,63.65 54.42,63.52 55.01,63.52C57.2,63.52 58.99,65.3 58.99,67.5C58.99,69.7 57.21,71.48 55.01,71.48C52.81,71.48 51.03,69.7 51.03,67.5C51.03,66.76 51.23,66.05 51.61,65.44C51.8,65.13 51.71,64.72 51.4,64.53L51.39,64.52Z" style="fill-rule:nonzero;"/>
    </g>
</svg>
