<?xml version="1.0" encoding="UTF-8" standalone="no"?>
<!DOCTYPE svg PUBLIC "-//W3C//DTD SVG 1.1//EN" "http://www.w3.org/Graphics/SVG/1.1/DTD/svg11.dtd">
<svg width="100%" height="100%" viewBox="0 0 38 38" version="1.1" xmlns="http://www.w3.org/2000/svg" xmlns:xlink="http://www.w3.org/1999/xlink" xml:space="preserve" xmlns:serif="http://www.serif.com/" style="fill-rule:evenodd;clip-rule:evenodd;stroke-linejoin:round;stroke-miterlimit:2;">
    <g transform="matrix(1,0,0,1,-37.34,-44.5)">
        <g transform="matrix(1.774648,0,0,1.774648,-39.573239,-57.542254)">
            <path d="M61.52,60.62C59.59,58.69 56.93,57.5 53.99,57.5C51.05,57.5 48.39,58.69 46.46,60.62C44.53,62.55 43.34,65.21 43.34,68.15C43.34,71.09 44.53,73.75 46.46,75.68C48.39,77.61 51.05,78.8 53.99,78.8C56.93,78.8 59.59,77.61 61.52,75.68C63.45,73.75 64.64,71.09 64.64,68.15C64.64,65.21 63.45,62.55 61.52,60.62Z" style="fill:white;"/>
        </g>
        <g transform="matrix(1.774648,0,0,1.774648,-39.573239,-57.542254)">
            <path d="M53.15,60.87C53.15,60.41 53.53,60.03 53.99,60.03C54.45,60.03 54.83,60.41 54.83,60.87L54.83,61.82C55.34,61.92 55.81,62.11 56.24,62.37C56.92,62.79 57.44,63.39 57.74,64.1C57.92,64.53 57.71,65.02 57.28,65.2C56.85,65.38 56.36,65.17 56.18,64.74C56.02,64.36 55.73,64.04 55.36,63.8C54.98,63.57 54.51,63.42 53.99,63.42C53.33,63.42 52.74,63.65 52.32,64.02C51.93,64.37 51.68,64.84 51.68,65.36C51.68,65.88 51.92,66.35 52.32,66.7C52.74,67.07 53.33,67.3 53.99,67.3C55.07,67.3 56.06,67.69 56.78,68.33C57.53,68.99 57.99,69.91 57.99,70.93C57.99,71.95 57.53,72.87 56.78,73.53C56.25,73.99 55.58,74.33 54.84,74.48L54.84,75.43C54.84,75.9 54.46,76.27 54,76.27C53.54,76.27 53.16,75.89 53.16,75.43L53.16,74.48C52.63,74.37 52.14,74.18 51.71,73.9C51.03,73.46 50.5,72.84 50.22,72.1C50.06,71.66 50.28,71.18 50.72,71.02C51.16,70.86 51.64,71.08 51.8,71.52C51.94,71.91 52.23,72.24 52.61,72.48C52.99,72.73 53.47,72.87 54,72.87C54.66,72.87 55.25,72.64 55.67,72.27C56.06,71.92 56.31,71.45 56.31,70.93C56.31,70.41 56.07,69.94 55.67,69.59C55.25,69.22 54.66,68.99 54,68.99C52.92,68.99 51.93,68.6 51.21,67.96C50.46,67.3 50,66.38 50,65.36C50,64.34 50.46,63.42 51.21,62.76C51.74,62.3 52.41,61.96 53.15,61.81L53.15,60.86L53.15,60.87Z"/>
        </g>
    </g>
</svg>
