<?xml version="1.0" encoding="UTF-8" standalone="no"?>
<!DOCTYPE svg PUBLIC "-//W3C//DTD SVG 1.1//EN" "http://www.w3.org/Graphics/SVG/1.1/DTD/svg11.dtd">
<svg width="100%" height="100%" viewBox="0 0 38 38" version="1.1" xmlns="http://www.w3.org/2000/svg" xmlns:xlink="http://www.w3.org/1999/xlink" xml:space="preserve" xmlns:serif="http://www.serif.com/" style="fill-rule:evenodd;clip-rule:evenodd;stroke-linejoin:round;stroke-miterlimit:2;">
    <g transform="matrix(1,0,0,1,-36.12,-48.62)">
        <path d="M68.35,54.15C64.93,50.73 60.21,48.62 55,48.62C49.79,48.62 45.06,50.73 41.65,54.15C38.23,57.57 36.12,62.29 36.12,67.5C36.12,72.71 38.23,77.44 41.65,80.85C45.07,84.27 49.79,86.38 55,86.38C60.21,86.38 64.94,84.27 68.35,80.85C71.77,77.43 73.88,72.71 73.88,67.5C73.88,62.29 71.77,57.56 68.35,54.15Z" style="fill:white;"/>
        <path d="M46.45,71.14L48.05,70.34C48.12,70.31 48.17,70.26 48.22,70.22C48.27,70.17 48.3,70.11 48.33,70.04C48.59,69.42 49.04,68.92 49.59,68.58C50.14,68.25 50.79,68.08 51.46,68.13C51.54,68.13 51.6,68.13 51.66,68.11C51.72,68.09 51.78,68.06 51.84,68.02L51.94,67.95C51.15,67.29 50.5,66.49 50.01,65.58C49.41,64.46 49.07,63.17 49.07,61.82C49.07,59.61 49.96,57.62 51.41,56.17C52.86,54.72 54.85,53.83 57.06,53.83C59.27,53.83 61.26,54.72 62.71,56.17C64.16,57.62 65.05,59.61 65.05,61.82C65.05,64.03 64.16,66.02 62.71,67.47C62.59,67.59 62.46,67.72 62.32,67.83C62.32,67.92 62.3,68.01 62.27,68.1L62.03,69.06C62.1,69.04 62.15,69.01 62.2,68.98C62.25,68.94 62.3,68.89 62.35,68.82L63.85,66.62C64.11,66.24 64.49,65.99 64.9,65.89C65.32,65.79 65.77,65.84 66.17,66.06L66.72,66.36C66.93,66.48 67.11,66.63 67.26,66.8C67.4,66.98 67.51,67.19 67.58,67.42C67.65,67.65 67.67,67.89 67.64,68.11C67.61,68.34 67.54,68.56 67.43,68.77L65.22,72.78C65.13,72.94 65.03,73.07 64.91,73.19C64.79,73.31 64.65,73.41 64.49,73.49L54.92,78.53C54.75,78.62 54.57,78.69 54.38,78.74C54.19,78.79 54.01,78.81 53.81,78.81L50.46,78.81C50.3,78.81 50.15,78.84 50.02,78.89C49.89,78.94 49.76,79.02 49.65,79.13L49.22,79.53L49.35,79.92C49.45,80.23 49.28,80.57 48.97,80.67L45.85,81.7C45.54,81.8 45.2,81.63 45.1,81.32L42.01,71.96C41.91,71.65 42.08,71.31 42.39,71.21L45.51,70.18C45.82,70.08 46.16,70.25 46.26,70.56L46.44,71.11L46.45,71.14ZM52.96,67.24L53.21,67.07C52.51,66.56 51.92,65.91 51.47,65.16C50.88,64.18 50.54,63.03 50.54,61.81C50.54,60.01 51.27,58.38 52.45,57.2C53.63,56.02 55.26,55.29 57.06,55.29C58.86,55.29 60.49,56.02 61.67,57.2C62.85,58.38 63.58,60.01 63.58,61.81C63.58,63.61 62.85,65.24 61.67,66.42C60.5,67.59 58.89,68.32 57.1,68.33C57.07,68.43 57.04,68.52 57,68.61L57.05,68.61C58.93,68.61 60.63,67.85 61.86,66.62C63.09,65.39 63.85,63.69 63.85,61.81C63.85,59.93 63.09,58.23 61.86,57C60.63,55.77 58.93,55.01 57.05,55.01C55.17,55.01 53.47,55.77 52.24,57C51.01,58.23 50.25,59.93 50.25,61.81C50.25,62.97 50.54,64.06 51.05,65.02C51.52,65.89 52.17,66.65 52.95,67.25L52.96,67.24ZM56.06,69.74L54.98,70.85C54.98,70.85 56.95,70.36 57.13,70.31L57.3,69.81L57.07,69.81C56.85,69.81 56.63,69.81 56.41,69.78C56.3,69.78 56.18,69.76 56.06,69.74ZM58.6,69.66L58.5,69.96L60.74,69.39L60.88,68.84C60.18,69.22 59.41,69.5 58.6,69.66ZM54.25,66.35L54.37,66.27C54.74,66.02 55.16,65.94 55.57,66.01C55.98,66.08 56.36,66.3 56.65,66.62L56.74,66.72C56.85,66.85 56.94,66.99 57.01,67.14L57.07,67.14C58.54,67.14 59.88,66.54 60.84,65.58C61.81,64.61 62.4,63.28 62.4,61.81C62.4,60.34 61.8,59 60.84,58.04C59.87,57.07 58.54,56.48 57.07,56.48C55.6,56.48 54.26,57.08 53.3,58.04C52.33,59.01 51.74,60.34 51.74,61.81C51.74,62.82 52.02,63.76 52.5,64.55C52.94,65.28 53.54,65.89 54.26,66.34L54.25,66.35ZM55.84,67.5L55.75,67.4C55.65,67.28 55.51,67.2 55.37,67.18C55.26,67.16 55.14,67.18 55.05,67.24L52.53,68.99C52.36,69.11 52.18,69.19 51.99,69.25C51.8,69.3 51.6,69.32 51.39,69.31C50.97,69.28 50.56,69.38 50.22,69.59C49.88,69.8 49.6,70.11 49.43,70.5C49.35,70.7 49.23,70.87 49.09,71.02C48.95,71.17 48.78,71.29 48.59,71.39L46.83,72.27L48.83,78.32L48.87,78.29C49.1,78.08 49.35,77.92 49.62,77.81C49.89,77.7 50.18,77.65 50.49,77.65L53.84,77.65C53.95,77.65 54.04,77.64 54.13,77.62C54.22,77.6 54.31,77.56 54.4,77.51L63.97,72.47C64.03,72.44 64.07,72.41 64.11,72.37C64.15,72.33 64.18,72.29 64.21,72.23L66.42,68.22C66.46,68.14 66.49,68.07 66.49,68C66.49,67.92 66.49,67.85 66.47,67.77C66.45,67.69 66.41,67.62 66.36,67.56C66.31,67.5 66.25,67.45 66.18,67.41L65.63,67.11C65.49,67.04 65.34,67.02 65.2,67.05C65.06,67.08 64.93,67.17 64.85,67.3L63.35,69.5C63.23,69.68 63.08,69.83 62.9,69.96C62.72,70.08 62.53,70.17 62.32,70.23L55.29,72.02C55.03,72.09 54.77,72.06 54.54,71.97C54.31,71.87 54.11,71.7 53.97,71.47C53.84,71.24 53.78,70.98 53.81,70.73C53.84,70.48 53.95,70.24 54.14,70.04C54.7,69.47 55.27,68.89 55.83,68.32C55.94,68.21 55.99,68.07 56,67.93C56,67.78 55.95,67.63 55.85,67.52L55.84,67.5ZM56.47,59.08C56.47,58.75 56.74,58.49 57.06,58.49C57.38,58.49 57.65,58.76 57.65,59.08L57.65,59.16C57.88,59.23 58.08,59.35 58.26,59.49C58.6,59.78 58.81,60.18 58.81,60.63C58.81,60.96 58.54,61.22 58.22,61.22C57.9,61.22 57.63,60.95 57.63,60.63C57.63,60.54 57.58,60.46 57.5,60.39C57.39,60.3 57.24,60.24 57.06,60.24C56.88,60.24 56.73,60.3 56.62,60.39C56.54,60.46 56.49,60.54 56.49,60.63C56.49,60.92 56.89,61.08 57.28,61.25C58.04,61.57 58.8,61.89 58.8,62.96C58.8,63.41 58.59,63.82 58.25,64.1C58.08,64.25 57.87,64.36 57.64,64.43L57.64,64.51C57.64,64.84 57.37,65.1 57.05,65.1C56.73,65.1 56.46,64.83 56.46,64.51L56.46,64.43C56.23,64.36 56.03,64.24 55.85,64.1C55.51,63.81 55.3,63.41 55.3,62.96C55.3,62.63 55.57,62.37 55.89,62.37C56.21,62.37 56.48,62.64 56.48,62.96C56.48,63.05 56.53,63.13 56.61,63.2C56.72,63.29 56.87,63.35 57.05,63.35C57.23,63.35 57.38,63.29 57.49,63.2C57.57,63.13 57.62,63.05 57.62,62.96C57.62,62.68 57.22,62.51 56.83,62.34C56.07,62.02 55.31,61.7 55.31,60.63C55.31,60.18 55.52,59.77 55.86,59.49C56.03,59.34 56.24,59.23 56.47,59.16L56.47,59.08ZM45.33,71.52L43.33,72.18L46.05,80.41L48.05,79.75L45.33,71.52Z" style="fill-rule:nonzero;"/>
    </g>
</svg>
