<?xml version="1.0" encoding="UTF-8" standalone="no"?>
<!DOCTYPE svg PUBLIC "-//W3C//DTD SVG 1.1//EN" "http://www.w3.org/Graphics/SVG/1.1/DTD/svg11.dtd">
<svg width="100%" height="100%" viewBox="0 0 38 38" version="1.1" xmlns="http://www.w3.org/2000/svg" xmlns:xlink="http://www.w3.org/1999/xlink" xml:space="preserve" xmlns:serif="http://www.serif.com/" style="fill-rule:evenodd;clip-rule:evenodd;stroke-linejoin:round;stroke-miterlimit:2;">
    <g transform="matrix(1,0,0,1,-36.12,-48.62)">
        <path d="M68.35,54.15C64.93,50.73 60.21,48.62 55,48.62C49.79,48.62 45.06,50.73 41.65,54.15C38.23,57.57 36.12,62.29 36.12,67.5C36.12,72.71 38.23,77.44 41.65,80.85C45.07,84.27 49.79,86.38 55,86.38C60.21,86.38 64.94,84.27 68.35,80.85C71.77,77.43 73.88,72.71 73.88,67.5C73.88,62.29 71.77,57.56 68.35,54.15Z" style="fill:white;"/>
        <path d="M61.76,80.04C61.44,80.04 61.14,79.93 60.89,79.73L59.57,78.65C59.28,78.42 59.11,78.09 59.07,77.72C59.03,77.35 59.14,77 59.37,76.71L59.54,76.51L55.78,73.43L55.65,73.43C55.12,73.43 54.57,73.37 54.04,73.3L53.57,73.25L50.07,76.05L50.61,76.71C50.84,77 50.95,77.35 50.91,77.72C50.87,78.09 50.7,78.42 50.41,78.65L49.09,79.73C48.85,79.93 48.54,80.04 48.22,80.04L48.08,80.04C47.71,80 47.38,79.83 47.15,79.54L41.6,72.74C41.37,72.45 41.26,72.1 41.3,71.73C41.34,71.36 41.51,71.03 41.8,70.8L43.12,69.72C43.36,69.52 43.67,69.41 43.98,69.41C44.29,69.41 44.57,69.51 44.81,69.69L46.75,68.08C46.51,67.46 46.62,66.76 47.05,66.25C47.18,66.09 47.34,65.96 47.52,65.85C47.15,65.2 47.21,64.37 47.71,63.78C47.89,63.56 48.12,63.4 48.37,63.29C48.21,62.72 48.34,62.09 48.73,61.63C48.95,61.37 49.25,61.17 49.57,61.07C49.57,61.03 49.56,60.98 49.55,60.94C49.51,60.46 49.66,59.99 49.97,59.62C50.28,59.25 50.72,59.03 51.2,58.99L51.36,58.99C51.79,58.99 52.2,59.14 52.52,59.42L52.91,59.75C53.14,59.32 53.43,59 53.79,58.81C54.06,58.66 54.36,58.59 54.68,58.59C54.92,58.59 55.18,58.63 55.44,58.72L57.3,59.34C57.6,59.14 57.95,59.03 58.33,59.03C58.4,59.03 58.46,59.03 58.53,59.04C59.03,59.09 59.48,59.33 59.77,59.69C60.1,60.1 60.22,60.6 60.11,61.12C60.46,61.22 60.77,61.43 61.01,61.72C61.56,62.39 61.62,63.12 61.17,63.92C61.59,64.1 61.91,64.41 62.12,64.84C62.33,65.29 62.32,65.87 62.08,66.38C62.21,66.47 62.33,66.58 62.44,66.71C62.75,67.08 62.9,67.58 62.86,68.08C62.85,68.25 62.81,68.41 62.76,68.57L64.73,70.19L64.92,69.96C65.18,69.64 65.57,69.45 65.99,69.45C66.31,69.45 66.61,69.56 66.86,69.76L68.18,70.84C68.77,71.32 68.86,72.19 68.38,72.78L62.83,79.59C62.6,79.87 62.27,80.05 61.9,80.09L61.76,80.09L61.76,80.04ZM66,70.72C66,70.72 65.97,70.72 65.95,70.74L60.4,77.55L61.73,78.72L67.37,71.9L66.04,70.73L66,70.73L66,70.72ZM44,70.72C44,70.72 43.98,70.72 43.96,70.73L42.64,71.81L48.18,78.7L49.59,77.63L48.64,76.37L44.05,70.74L44,70.72ZM60.38,75.5L63.92,71.16L61.96,69.55L58.42,72.5C58.11,72.75 57.8,72.95 57.46,73.1L60.39,75.5L60.38,75.5ZM49.25,75.04L52.98,72.06C53.1,71.97 53.24,71.92 53.39,71.92C53.7,71.95 53.94,71.98 54.17,72C54.73,72.07 55.22,72.13 55.67,72.13C56.47,72.13 57.04,71.94 57.58,71.49L61.39,68.32C61.49,68.23 61.56,68.1 61.57,67.94C61.58,67.78 61.54,67.63 61.45,67.52C61.35,67.4 61.2,67.33 61.04,67.33C60.67,67.33 60.41,67.14 60.33,66.86C60.24,66.57 60.38,66.24 60.65,66.1C60.97,65.93 61.01,65.49 60.96,65.38C60.84,65.13 60.66,65.06 60.3,65.01C60.09,64.98 59.69,64.92 59.53,64.52C59.48,64.4 59.4,64.09 59.67,63.76C60.26,63.02 60.27,62.84 60.02,62.54C59.91,62.41 59.76,62.34 59.61,62.34C59.5,62.34 59.39,62.38 59.31,62.45C59.19,62.55 59.04,62.6 58.89,62.6C58.7,62.6 58.51,62.52 58.39,62.37C58.16,62.1 58.19,61.68 58.46,61.45C58.77,61.18 58.98,60.76 58.76,60.49C58.69,60.41 58.56,60.35 58.41,60.33L58.39,60.33C58.21,60.33 58.1,60.37 58.02,60.43L55.68,62.38C55.74,62.53 55.77,62.69 55.79,62.86C55.83,63.34 55.68,63.81 55.37,64.18C55.06,64.55 54.62,64.77 54.14,64.81L54.08,64.81C54.05,65.18 53.9,65.52 53.66,65.8C53.39,66.12 53.03,66.33 52.63,66.41C52.63,66.84 52.49,67.26 52.21,67.6C52.03,67.81 51.81,67.98 51.55,68.09C51.72,68.67 51.6,69.31 51.2,69.78C50.89,70.15 50.45,70.38 49.97,70.42L49.82,70.42C49.39,70.42 48.98,70.27 48.65,69.99L47.6,69.09L45.69,70.68L49.25,75.05L49.25,75.04ZM48.4,66.91C48.27,66.92 48.15,66.98 48.07,67.08C47.89,67.29 47.92,67.62 48.13,67.8L49.51,68.98C49.6,69.06 49.71,69.1 49.82,69.1C49.99,69.09 50.11,69.03 50.19,68.93C50.37,68.72 50.34,68.39 50.13,68.21L48.72,67C48.64,66.94 48.54,66.91 48.44,66.91L48.44,66.66L48.4,66.91ZM49.06,64.44C48.93,64.45 48.81,64.51 48.73,64.61C48.55,64.82 48.58,65.14 48.79,65.32L50.52,66.79C50.61,66.86 50.71,66.9 50.83,66.9C51,66.89 51.12,66.83 51.21,66.73C51.39,66.52 51.36,66.2 51.15,66.02L49.37,64.51C49.3,64.46 49.21,64.43 49.11,64.43L49.11,64.18L49.07,64.43L49.06,64.44ZM50.08,62.29C49.95,62.3 49.83,62.36 49.74,62.46C49.56,62.67 49.59,62.99 49.8,63.17L50.17,63.48L50.27,63.56L51.96,65C52.05,65.08 52.16,65.12 52.27,65.12C52.45,65.11 52.57,65.05 52.65,64.95C52.83,64.74 52.8,64.42 52.59,64.24L50.43,62.41C50.34,62.34 50.23,62.29 50.11,62.29L50.11,62.04L50.07,62.29L50.08,62.29ZM51.37,60.28C51.22,60.28 51.08,60.34 50.99,60.46C50.91,60.56 50.86,60.69 50.88,60.82C50.89,60.95 50.95,61.07 51.05,61.16L53.66,63.37C53.75,63.45 53.86,63.49 53.98,63.49C54.15,63.48 54.28,63.42 54.36,63.32C54.44,63.22 54.48,63.09 54.47,62.96C54.46,62.83 54.4,62.71 54.3,62.62L51.69,60.41C51.6,60.33 51.49,60.29 51.37,60.29L51.37,60.28ZM54.84,61.34L56.11,60.29L55.04,59.94C54.91,59.9 54.8,59.88 54.7,59.88C54.6,59.88 54.52,59.9 54.44,59.94C54.26,60.04 54.1,60.27 53.97,60.61L54.85,61.35L54.84,61.34ZM45.29,62.33C45.18,62.33 45.06,62.3 44.96,62.24L43.2,61.23C42.89,61.05 42.78,60.65 42.96,60.33C43.08,60.13 43.29,60 43.53,60C43.64,60 43.76,60.03 43.86,60.09L45.62,61.1C45.93,61.28 46.04,61.68 45.86,62C45.74,62.2 45.52,62.33 45.29,62.33ZM64.64,61.44C64.41,61.44 64.19,61.31 64.07,61.11C63.89,60.79 64,60.39 64.31,60.21L66.07,59.2C66.17,59.14 66.28,59.11 66.4,59.11C66.63,59.11 66.85,59.24 66.97,59.44C67.15,59.75 67.04,60.16 66.73,60.34L64.97,61.35C64.87,61.41 64.76,61.44 64.64,61.44ZM49.19,58.06C48.96,58.06 48.74,57.93 48.62,57.73L47.61,55.97C47.43,55.66 47.54,55.25 47.85,55.07C47.95,55.01 48.06,54.98 48.18,54.98C48.41,54.98 48.63,55.11 48.75,55.31L49.76,57.07C49.94,57.38 49.83,57.79 49.52,57.97C49.42,58.03 49.31,58.06 49.19,58.06ZM60.36,57.54C60.25,57.54 60.13,57.51 60.03,57.45C59.71,57.27 59.61,56.86 59.79,56.55L60.8,54.79C60.92,54.59 61.13,54.46 61.37,54.46C61.49,54.46 61.6,54.49 61.7,54.55C61.85,54.64 61.96,54.78 62.01,54.95C62.05,55.12 62.03,55.3 61.94,55.45L60.93,57.21C60.81,57.41 60.59,57.54 60.36,57.54ZM54.71,56.3C54.35,56.3 54.05,56.01 54.05,55.64L54.05,53.61C54.05,53.25 54.34,52.95 54.71,52.95C55.08,52.95 55.37,53.24 55.37,53.61L55.37,55.64C55.37,56 55.08,56.3 54.71,56.3Z" style="fill-rule:nonzero;"/>
        <path d="M54.71,53.21C54.94,53.21 55.12,53.39 55.12,53.62L55.12,55.65C55.12,55.88 54.94,56.06 54.71,56.06C54.48,56.06 54.3,55.88 54.3,55.65L54.3,53.62C54.3,53.39 54.48,53.21 54.71,53.21M61.38,54.72C61.45,54.72 61.52,54.74 61.58,54.77C61.77,54.88 61.84,55.13 61.73,55.33L60.72,57.09C60.64,57.22 60.51,57.29 60.37,57.29C60.3,57.29 60.23,57.27 60.17,57.24C59.98,57.13 59.91,56.88 60.02,56.68L61.03,54.92C61.11,54.79 61.24,54.72 61.38,54.72M48.18,55.23C48.32,55.23 48.46,55.3 48.53,55.43L49.54,57.19C49.65,57.38 49.59,57.63 49.39,57.75C49.33,57.79 49.26,57.8 49.19,57.8C49.05,57.8 48.91,57.73 48.84,57.6L47.83,55.84C47.72,55.65 47.78,55.4 47.98,55.28C48.04,55.24 48.11,55.23 48.18,55.23M54.69,58.8C54.91,58.8 55.13,58.84 55.37,58.92L57.35,59.58C57.62,59.36 57.97,59.24 58.34,59.24L58.52,59.24C58.95,59.28 59.34,59.49 59.59,59.79C59.95,60.24 59.98,60.77 59.82,61.25C60.2,61.3 60.57,61.5 60.84,61.83C61.54,62.68 61.19,63.46 60.81,64C61.17,64.09 61.63,64.31 61.91,64.89C62.12,65.32 62.07,65.93 61.77,66.42C61.96,66.52 62.13,66.65 62.27,66.82C62.54,67.14 62.67,67.57 62.64,68.01C62.62,68.22 62.57,68.41 62.48,68.59L64.79,70.48L65.13,70.06C65.35,69.79 65.68,69.65 66,69.65C66.25,69.65 66.5,69.73 66.71,69.9L68.03,70.98C68.51,71.37 68.58,72.08 68.19,72.57L62.64,79.38C62.45,79.61 62.18,79.76 61.88,79.79L61.76,79.79C61.5,79.79 61.25,79.7 61.05,79.54L59.73,78.46C59.25,78.07 59.18,77.36 59.57,76.87L59.89,76.47L55.87,73.17L55.66,73.17C55.14,73.17 54.62,73.11 54.08,73.04C53.89,73.02 53.7,72.99 53.51,72.97L49.73,76L50.43,76.86C50.82,77.34 50.75,78.05 50.27,78.45L48.95,79.53C48.75,79.69 48.5,79.78 48.24,79.78L48.12,79.78C47.82,79.75 47.55,79.6 47.36,79.37L41.81,72.56C41.42,72.08 41.49,71.37 41.97,70.97L43.29,69.89C43.5,69.72 43.75,69.64 44,69.64C44.3,69.64 44.6,69.76 44.82,70L47.07,68.13C46.78,67.58 46.84,66.89 47.25,66.39C47.43,66.18 47.65,66.02 47.9,65.93C47.43,65.36 47.41,64.51 47.9,63.92C48.11,63.67 48.38,63.5 48.69,63.42C48.45,62.89 48.52,62.24 48.92,61.77C49.16,61.48 49.5,61.29 49.87,61.24C49.84,61.13 49.81,61.02 49.8,60.9C49.76,60.48 49.89,60.08 50.16,59.76C50.43,59.44 50.81,59.25 51.22,59.21L51.36,59.21C51.73,59.21 52.08,59.34 52.36,59.58L53,60.12C53.22,59.58 53.53,59.21 53.91,58.99C54.14,58.86 54.4,58.8 54.68,58.8M54.84,61.67L56.61,60.19L55.11,59.69C54.96,59.64 54.82,59.61 54.69,59.61C54.55,59.61 54.42,59.64 54.31,59.7C54.04,59.85 53.82,60.18 53.67,60.67L54.84,61.66M50.88,61.35L53.49,63.56C53.63,63.67 53.79,63.74 53.97,63.74L54.03,63.74C54.23,63.72 54.41,63.63 54.54,63.48C54.67,63.33 54.73,63.13 54.71,62.94C54.69,62.74 54.6,62.56 54.45,62.43L51.84,60.22C51.7,60.1 51.53,60.04 51.36,60.04C51.15,60.04 50.94,60.13 50.79,60.3C50.66,60.45 50.6,60.64 50.62,60.84C50.64,61.04 50.73,61.22 50.88,61.35M53.98,64.54C53.93,64.54 53.88,64.54 53.83,64.53C53.85,64.91 53.73,65.31 53.47,65.62C53.2,65.94 52.83,66.13 52.41,66.17L52.36,66.17C52.43,66.6 52.31,67.06 52.01,67.42C51.8,67.67 51.53,67.84 51.22,67.92C51.47,68.46 51.41,69.12 51.01,69.6C50.74,69.92 50.37,70.12 49.95,70.15L49.82,70.15C49.45,70.15 49.1,70.02 48.82,69.78L47.61,68.75L45.34,70.64L49.21,75.39L53.13,72.25C53.2,72.19 53.29,72.16 53.38,72.16L53.42,72.16C53.68,72.19 53.93,72.22 54.17,72.25C54.7,72.31 55.19,72.37 55.66,72.37C56.41,72.37 57.08,72.21 57.73,71.67L61.54,68.5C61.69,68.37 61.79,68.17 61.81,67.95C61.83,67.73 61.76,67.51 61.63,67.35C61.48,67.17 61.26,67.07 61.03,67.07L60.94,67.07C60.76,67.07 60.6,66.95 60.55,66.78C60.5,66.6 60.58,66.4 60.75,66.31C61.2,66.07 61.27,65.48 61.16,65.26C60.98,64.88 60.67,64.8 60.31,64.75C60.11,64.72 59.84,64.68 59.74,64.41C59.7,64.31 59.67,64.12 59.84,63.9L59.88,63.86C60.4,63.21 60.6,62.85 60.19,62.37C60.03,62.18 59.81,62.08 59.59,62.08C59.43,62.08 59.26,62.14 59.13,62.25C59.05,62.31 58.96,62.34 58.87,62.34C58.75,62.34 58.64,62.29 58.56,62.2C58.42,62.03 58.43,61.78 58.6,61.63C59,61.28 59.25,60.72 58.94,60.32C58.83,60.18 58.64,60.09 58.42,60.07L58.33,60.07C58.15,60.07 57.97,60.13 57.85,60.23L55.37,62.3C55.46,62.48 55.51,62.67 55.53,62.87C55.57,63.29 55.44,63.69 55.17,64.01C54.9,64.33 54.52,64.52 54.11,64.56L53.98,64.56M52.27,65.36L52.34,65.36C52.54,65.34 52.72,65.25 52.85,65.1C53.12,64.78 53.08,64.31 52.76,64.04L50.6,62.21C50.47,62.1 50.3,62.03 50.12,62.03L50.06,62.03C49.86,62.05 49.68,62.14 49.55,62.29C49.28,62.61 49.32,63.08 49.64,63.35L50.01,63.66C50.01,63.66 50.08,63.71 50.11,63.74L51.69,65.09L51.8,65.18C51.93,65.29 52.1,65.36 52.28,65.36M50.82,67.16L50.88,67.16C51.08,67.14 51.26,67.05 51.38,66.9C51.65,66.58 51.61,66.11 51.29,65.84L51.16,65.73L49.51,64.33C49.39,64.24 49.24,64.19 49.09,64.19L49.03,64.19C48.83,64.21 48.65,64.3 48.53,64.45C48.26,64.77 48.3,65.24 48.62,65.51L49.37,66.15C49.37,66.15 49.42,66.18 49.44,66.2L50.34,66.98C50.47,67.09 50.64,67.15 50.81,67.15M49.82,69.34L49.88,69.34C50.08,69.32 50.25,69.23 50.38,69.08C50.65,68.76 50.61,68.28 50.29,68.01L49.83,67.61C49.83,67.61 49.82,67.61 49.81,67.6L48.88,66.8C48.75,66.7 48.6,66.65 48.44,66.65L48.38,66.65C48.18,66.67 48.01,66.76 47.88,66.91C47.61,67.23 47.65,67.71 47.97,67.98L49.35,69.16C49.48,69.27 49.65,69.34 49.83,69.34M60.41,75.85L64.26,71.12L61.95,69.22L58.25,72.3C57.82,72.66 57.39,72.88 56.95,73.01L60.41,75.85M48.23,78.98C48.3,78.98 48.37,78.96 48.43,78.91L49.75,77.83C49.88,77.72 49.9,77.52 49.8,77.39L48.84,76.21L44.46,70.84L44.25,70.58C44.19,70.5 44.1,70.46 44.01,70.46C43.94,70.46 43.87,70.48 43.81,70.53L42.49,71.61C42.36,71.72 42.34,71.92 42.45,72.05L48,78.86C48.05,78.92 48.13,78.96 48.21,78.97L48.24,78.97M61.76,78.98L61.79,78.98C61.87,78.98 61.95,78.93 62,78.87L67.55,72.06C67.66,71.93 67.64,71.73 67.51,71.62L66.19,70.54C66.13,70.49 66.06,70.47 65.99,70.47C65.9,70.47 65.81,70.51 65.75,70.59L60.2,77.4C60.09,77.53 60.11,77.73 60.24,77.84L61.56,78.92C61.62,78.97 61.68,78.99 61.76,78.99M66.4,59.36C66.54,59.36 66.68,59.43 66.75,59.56C66.86,59.75 66.8,60 66.6,60.12L64.84,61.13C64.78,61.17 64.71,61.18 64.64,61.18C64.5,61.18 64.36,61.11 64.29,60.98C64.18,60.79 64.24,60.54 64.44,60.42L66.2,59.41C66.26,59.37 66.33,59.36 66.4,59.36M43.53,60.25C43.6,60.25 43.67,60.27 43.73,60.3L45.49,61.31C45.68,61.42 45.75,61.67 45.64,61.87C45.56,62 45.43,62.07 45.29,62.07C45.22,62.07 45.15,62.05 45.09,62.02L43.33,61.01C43.14,60.9 43.07,60.65 43.18,60.45C43.26,60.32 43.39,60.25 43.53,60.25M54.71,52.71C54.21,52.71 53.8,53.12 53.8,53.62L53.8,55.65C53.8,56.15 54.21,56.56 54.71,56.56C55.21,56.56 55.62,56.15 55.62,55.65L55.62,53.62C55.62,53.12 55.21,52.71 54.71,52.71ZM61.38,54.22C61.06,54.22 60.76,54.39 60.59,54.67L59.58,56.43C59.33,56.86 59.48,57.42 59.91,57.67C60.05,57.75 60.2,57.79 60.36,57.79C60.68,57.79 60.98,57.62 61.15,57.34L62.16,55.58C62.28,55.37 62.31,55.13 62.25,54.89C62.19,54.66 62.04,54.46 61.83,54.34C61.69,54.26 61.54,54.22 61.38,54.22ZM48.18,54.73C48.02,54.73 47.86,54.77 47.73,54.85C47.3,55.1 47.15,55.66 47.4,56.09L48.41,57.85C48.57,58.13 48.87,58.3 49.2,58.3C49.36,58.3 49.51,58.26 49.65,58.18C50.08,57.93 50.23,57.37 49.98,56.94L48.97,55.18C48.81,54.9 48.51,54.73 48.18,54.73ZM54.69,58.3C54.33,58.3 53.99,58.39 53.68,58.55C53.36,58.73 53.08,58.99 52.85,59.33L52.69,59.19C52.32,58.88 51.85,58.7 51.36,58.7L51.18,58.7C50.63,58.75 50.13,59 49.78,59.42C49.44,59.82 49.27,60.34 49.3,60.86C49.01,60.99 48.74,61.18 48.53,61.43C48.14,61.9 47.98,62.52 48.08,63.11C47.87,63.23 47.67,63.39 47.51,63.58C47,64.19 46.89,65.02 47.19,65.72C47.06,65.81 46.95,65.92 46.85,66.04C46.4,66.58 46.26,67.29 46.45,67.95L44.79,69.34C44.55,69.2 44.27,69.12 43.98,69.12C43.61,69.12 43.25,69.25 42.96,69.48L41.64,70.56C41.3,70.83 41.09,71.22 41.05,71.66C41.01,72.09 41.13,72.52 41.41,72.85L46.96,79.66C47.23,80 47.62,80.21 48.06,80.25L48.23,80.25C48.6,80.25 48.97,80.12 49.26,79.88L50.58,78.8C50.92,78.53 51.13,78.14 51.17,77.7C51.21,77.27 51.09,76.84 50.81,76.51L50.43,76.04L53.66,73.46C53.78,73.47 53.9,73.49 54.02,73.5C54.55,73.56 55.11,73.63 55.66,73.63L55.7,73.63L59.19,76.49C58.62,77.2 58.73,78.22 59.42,78.79L60.74,79.87C61.03,80.11 61.39,80.24 61.77,80.24L61.94,80.24C62.37,80.2 62.76,79.99 63.03,79.65L68.58,72.84C69.15,72.14 69.04,71.12 68.35,70.55L67.03,69.47C66.74,69.23 66.38,69.1 66,69.1C65.51,69.1 65.05,69.32 64.74,69.7L64.71,69.73L63.06,68.38C63.09,68.25 63.12,68.13 63.13,68C63.18,67.44 63,66.87 62.65,66.45C62.57,66.36 62.49,66.28 62.4,66.2C62.59,65.67 62.58,65.09 62.36,64.63C62.17,64.23 61.89,63.92 61.52,63.71C61.97,62.72 61.63,61.96 61.22,61.47C60.99,61.2 60.71,60.99 60.4,60.86C60.45,60.35 60.31,59.85 59.98,59.44C59.65,59.03 59.14,58.76 58.57,58.7C58.49,58.7 58.42,58.69 58.34,58.69C57.95,58.69 57.59,58.79 57.27,58.98L55.53,58.4C55.24,58.3 54.96,58.26 54.69,58.26L54.69,58.3ZM54.27,60.53C54.4,60.26 54.52,60.17 54.56,60.15C54.58,60.14 54.62,60.12 54.7,60.12C54.78,60.12 54.86,60.14 54.96,60.17L55.6,60.38L54.84,61.01L54.26,60.52L54.27,60.53ZM51.21,60.97C51.16,60.93 51.13,60.87 51.12,60.8C51.12,60.73 51.13,60.67 51.18,60.62C51.23,60.56 51.3,60.53 51.37,60.53C51.41,60.53 51.47,60.53 51.53,60.59L54.14,62.8C54.19,62.84 54.22,62.9 54.23,62.97C54.23,63.04 54.22,63.1 54.17,63.15C54.13,63.2 54.07,63.23 54,63.23C53.92,63.23 53.87,63.21 53.83,63.17L51.22,60.96L51.21,60.97ZM55.97,62.44L58.18,60.6C58.18,60.6 58.26,60.55 58.34,60.55C58.48,60.56 58.54,60.6 58.56,60.62C58.65,60.74 58.53,61.03 58.29,61.24C57.92,61.57 57.88,62.14 58.2,62.51C58.37,62.71 58.62,62.83 58.89,62.83C59.1,62.83 59.31,62.76 59.47,62.62C59.51,62.58 59.56,62.57 59.61,62.57C59.69,62.57 59.77,62.61 59.83,62.68C59.97,62.85 60.02,62.91 59.51,63.54L59.47,63.58C59.22,63.89 59.16,64.26 59.29,64.59C59.5,65.13 60.03,65.2 60.26,65.24C60.6,65.29 60.66,65.33 60.73,65.47C60.73,65.51 60.71,65.77 60.53,65.86C60.16,66.06 59.97,66.5 60.09,66.91C60.2,67.3 60.56,67.56 60.96,67.56L61.03,67.56C61.13,67.56 61.21,67.6 61.26,67.66C61.31,67.72 61.33,67.81 61.33,67.9C61.33,67.99 61.29,68.07 61.24,68.11L57.43,71.28C56.94,71.69 56.42,71.86 55.68,71.86C55.25,71.86 54.77,71.8 54.25,71.74C53.99,71.71 53.74,71.68 53.49,71.65L53.39,71.65C53.19,71.65 52.98,71.72 52.82,71.85L49.29,74.68L46.04,70.7L47.6,69.4L48.49,70.16C48.86,70.48 49.33,70.65 49.82,70.65L49.99,70.65C50.54,70.6 51.04,70.35 51.39,69.92C51.79,69.44 51.95,68.81 51.83,68.2C52.04,68.08 52.23,67.92 52.39,67.73C52.66,67.4 52.83,67 52.86,66.58C53.24,66.47 53.58,66.24 53.84,65.93C54.07,65.66 54.22,65.34 54.28,65C54.78,64.92 55.22,64.68 55.54,64.29C55.89,63.87 56.06,63.34 56.02,62.79C56.01,62.66 55.99,62.54 55.95,62.42L55.97,62.44ZM52.27,64.86C52.21,64.86 52.16,64.84 52.12,64.8L52.02,64.71L50.44,63.36C50.44,63.36 50.36,63.29 50.31,63.26L49.97,62.97C49.87,62.88 49.85,62.72 49.94,62.62C49.98,62.57 50.04,62.54 50.11,62.54C50.19,62.54 50.24,62.56 50.28,62.6L52.44,64.43C52.55,64.52 52.56,64.68 52.47,64.78C52.43,64.83 52.37,64.86 52.3,64.86L52.27,64.86ZM50.82,66.66C50.77,66.66 50.71,66.64 50.67,66.61L49.77,65.84C49.77,65.84 49.72,65.8 49.69,65.78L48.94,65.14C48.83,65.05 48.82,64.89 48.91,64.78C48.95,64.73 49.01,64.7 49.07,64.7C49.13,64.7 49.18,64.72 49.22,64.74L50.83,66.11L50.96,66.22C51.07,66.31 51.08,66.47 50.99,66.58C50.95,66.63 50.89,66.66 50.83,66.66L50.81,66.66L50.82,66.66ZM49.82,68.84C49.76,68.84 49.71,68.82 49.67,68.78L48.29,67.6C48.18,67.51 48.17,67.34 48.26,67.23C48.3,67.18 48.36,67.15 48.42,67.15C48.48,67.15 48.53,67.17 48.57,67.2L49.48,67.98L49.96,68.39C50.07,68.48 50.08,68.65 49.99,68.76C49.95,68.81 49.89,68.84 49.83,68.84L49.81,68.84L49.82,68.84ZM57.91,73.15C58.14,73.02 58.36,72.87 58.58,72.69L61.96,69.88L63.57,71.2L60.35,75.15L57.92,73.15L57.91,73.15ZM42.95,71.89L43.98,71.05L44.07,71.16L48.45,76.53L48.49,76.57L49.3,77.56L48.27,78.4L42.96,71.88L42.95,71.89ZM60.71,77.56L66.02,71.04L67.05,71.88L61.74,78.4L60.71,77.56ZM66.4,58.86C66.24,58.86 66.08,58.9 65.95,58.98L64.19,59.99C63.76,60.24 63.61,60.8 63.86,61.23C64.02,61.51 64.32,61.68 64.65,61.68C64.81,61.68 64.96,61.64 65.1,61.56L66.86,60.55C67.29,60.3 67.44,59.74 67.19,59.31C67.03,59.03 66.73,58.86 66.4,58.86ZM43.53,59.75C43.21,59.75 42.91,59.92 42.74,60.2C42.49,60.63 42.64,61.19 43.07,61.44L44.83,62.45C44.97,62.53 45.12,62.57 45.28,62.57C45.6,62.57 45.9,62.4 46.07,62.12C46.19,61.91 46.22,61.66 46.16,61.43C46.1,61.2 45.95,61 45.74,60.88L43.98,59.87C43.84,59.79 43.69,59.75 43.53,59.75Z" style="fill-rule:nonzero;"/>
    </g>
</svg>
