<?xml version="1.0" encoding="UTF-8" standalone="no"?>
<!DOCTYPE svg PUBLIC "-//W3C//DTD SVG 1.1//EN" "http://www.w3.org/Graphics/SVG/1.1/DTD/svg11.dtd">
<svg width="100%" height="100%" viewBox="0 0 38 38" version="1.1" xmlns="http://www.w3.org/2000/svg" xmlns:xlink="http://www.w3.org/1999/xlink" xml:space="preserve" xmlns:serif="http://www.serif.com/" style="fill-rule:evenodd;clip-rule:evenodd;stroke-linejoin:round;stroke-miterlimit:2;">
    <g transform="matrix(1,0,0,1,-36.12,-48.62)">
        <path d="M68.35,54.15C64.93,50.73 60.21,48.62 55,48.62C49.79,48.62 45.06,50.73 41.65,54.15C38.23,57.57 36.12,62.29 36.12,67.5C36.12,72.71 38.23,77.44 41.65,80.85C45.07,84.27 49.79,86.38 55,86.38C60.21,86.38 64.94,84.27 68.35,80.85C71.77,77.43 73.88,72.71 73.88,67.5C73.88,62.29 71.77,57.56 68.35,54.15Z" style="fill:white;"/>
        <path d="M64.11,60.53C63.04,60.53 62.17,59.66 62.17,58.59C62.17,57.52 63.04,56.65 64.11,56.65C65.18,56.65 66.05,57.52 66.05,58.59C66.05,59.66 65.18,60.53 64.11,60.53ZM64.11,57.4C63.45,57.4 62.92,57.93 62.92,58.59C62.92,59.25 63.45,59.78 64.11,59.78C64.77,59.78 65.3,59.25 65.3,58.59C65.3,57.93 64.77,57.4 64.11,57.4Z" style="fill-rule:nonzero;"/>
        <path d="M64.11,72.93C61.88,72.93 60.08,71.13 60.08,68.9C60.08,68.38 60.18,67.86 60.38,67.37L60.76,66.14C61.08,64.54 61.08,62.89 60.76,61.3C60.66,60.83 60.51,60.37 60.32,59.93C60.15,59.49 60.06,59.03 60.05,58.56C60.03,56.37 61.73,54.56 63.91,54.43C66.13,54.32 68.03,56.03 68.14,58.25L68.14,58.45C68.14,58.98 68.04,59.5 67.84,59.99C67.72,60.37 67.59,60.8 67.46,61.21C67.39,61.59 67.35,61.87 67.32,62.13C67.3,62.34 67.11,62.49 66.9,62.46C66.69,62.44 66.54,62.25 66.57,62.04C66.6,61.76 66.65,61.46 66.72,61.06L66.72,61.01C66.86,60.59 66.99,60.17 67.13,59.74C67.3,59.34 67.38,58.9 67.39,58.46C67.39,56.65 65.92,55.18 64.11,55.18L63.97,55.18C62.19,55.29 60.81,56.78 60.83,58.56C60.83,58.95 60.91,59.33 61.05,59.69C61.26,60.17 61.42,60.68 61.52,61.19C61.86,62.89 61.85,64.64 61.5,66.33L61.5,66.37L61.09,67.65C60.92,68.05 60.84,68.49 60.83,68.92C60.83,70.73 62.29,72.2 64.11,72.2L64.26,72.2C66.04,72.1 67.43,70.61 67.4,68.82C67.4,68.43 67.32,68.05 67.17,67.69C66.96,67.21 66.81,66.7 66.7,66.19C66.64,65.89 66.6,65.6 66.56,65.32C66.54,65.11 66.68,64.92 66.89,64.9C67.1,64.88 67.29,65.02 67.31,65.23C67.34,65.5 67.39,65.77 67.44,66.06C67.54,66.53 67.69,66.99 67.87,67.43C68.04,67.86 68.13,68.32 68.13,68.79C68.17,70.98 66.46,72.82 64.27,72.92L64.1,72.92L64.11,72.93Z" style="fill-rule:nonzero;"/>
        <path d="M64.11,70.71C63.04,70.71 62.17,69.84 62.17,68.77C62.17,67.7 63.04,66.83 64.11,66.83C65.18,66.83 66.05,67.7 66.05,68.77C66.05,69.84 65.18,70.71 64.11,70.71ZM64.11,67.58C63.45,67.58 62.92,68.11 62.92,68.77C62.92,69.43 63.45,69.96 64.11,69.96C64.77,69.96 65.3,69.43 65.3,68.77C65.3,68.11 64.77,67.58 64.11,67.58Z" style="fill-rule:nonzero;"/>
        <path d="M45.88,80.57C43.67,80.57 41.86,78.79 41.86,76.57C41.86,75.5 42.28,74.47 43.05,73.71C43.42,73.34 43.85,73.05 44.33,72.85C44.6,72.7 44.88,72.56 45.16,72.42L45.49,72.25C46.85,71.35 48.02,70.19 48.93,68.84C49.19,68.44 49.41,68.01 49.59,67.57C49.78,67.14 50.04,66.75 50.36,66.41C50.58,66.17 50.83,65.97 51.11,65.8C51.29,65.69 51.52,65.75 51.62,65.92C51.73,66.1 51.67,66.33 51.5,66.44C51.28,66.57 51.07,66.74 50.9,66.93C50.64,67.21 50.43,67.53 50.28,67.88C50.08,68.37 49.83,68.83 49.55,69.28C48.59,70.72 47.34,71.95 45.9,72.9L45.86,72.92L45.51,73.1L44.67,73.51L44.63,73.53C44.23,73.7 43.88,73.95 43.58,74.26C42.3,75.53 42.3,77.6 43.57,78.88C43.61,78.92 43.65,78.96 43.69,78.99C45.02,80.17 47.04,80.1 48.28,78.83C48.54,78.56 48.76,78.24 48.91,77.89C49.12,77.4 49.37,76.93 49.66,76.49C49.82,76.26 49.97,76.05 50.12,75.86C50.26,75.7 50.49,75.69 50.65,75.82C50.79,75.94 50.82,76.16 50.71,76.31C50.57,76.5 50.42,76.69 50.28,76.91C50.02,77.31 49.8,77.74 49.62,78.18C49.43,78.61 49.17,79 48.85,79.34C48.08,80.14 47.01,80.58 45.9,80.56L45.88,80.57Z" style="fill-rule:nonzero;"/>
        <path d="M52.62,74.18C52.41,74.19 52.24,74.03 52.23,73.82C52.23,73.7 52.28,73.58 52.38,73.5C52.64,73.29 52.94,73.08 53.27,72.85L53.31,72.82L53.64,72.65C53.93,72.5 54.21,72.36 54.49,72.21L54.53,72.19C54.75,72.1 54.97,71.98 55.16,71.84C55.33,71.72 55.56,71.75 55.69,71.92C55.81,72.09 55.78,72.32 55.61,72.45C55.37,72.63 55.11,72.77 54.83,72.88L53.99,73.32L53.7,73.5C53.38,73.72 53.11,73.92 52.87,74.11C52.8,74.16 52.72,74.18 52.64,74.17L52.62,74.18Z" style="fill-rule:nonzero;"/>
        <path d="M45.99,78.42C44.92,78.42 44.04,77.55 44.04,76.48C44.04,75.41 44.91,74.53 45.98,74.53C47.05,74.53 47.93,75.4 47.93,76.47C47.93,76.99 47.73,77.48 47.36,77.85C47,78.22 46.5,78.42 45.99,78.42ZM45.99,75.28C45.33,75.28 44.8,75.81 44.8,76.46C44.8,76.78 44.93,77.08 45.15,77.3C45.62,77.75 46.36,77.75 46.84,77.3C47.31,76.84 47.31,76.08 46.84,75.62C46.61,75.4 46.31,75.27 46,75.27L45.99,75.28Z" style="fill-rule:nonzero;"/>
        <path d="M53.69,72.93C51.52,72.9 49.75,71.19 49.65,69.03C49.58,66.81 51.32,64.94 53.55,64.87C54.11,64.85 54.67,64.95 55.2,65.16L56.57,65.58C58.08,65.88 59.63,65.89 61.14,65.6C61.34,65.57 61.54,65.7 61.57,65.91C61.61,66.11 61.47,66.31 61.27,66.35C59.67,66.65 58.02,66.64 56.42,66.32L56.37,66.32L54.95,65.88C53.28,65.18 51.36,65.97 50.66,67.64C50.48,68.07 50.39,68.53 50.41,69C50.49,70.8 51.99,72.2 53.79,72.17C54.17,72.16 54.54,72.08 54.89,71.95C55.38,71.74 55.9,71.58 56.42,71.47C57.4,71.28 58.4,71.21 59.39,71.25C60.44,71.3 61.48,71.49 62.47,71.81L62.85,71.93C63.05,71.99 63.16,72.2 63.1,72.4C63.04,72.6 62.83,72.71 62.63,72.65L62.25,72.53C61.31,72.23 60.34,72.05 59.36,72C58.42,71.97 57.47,72.04 56.55,72.22C56.07,72.32 55.61,72.46 55.16,72.66C54.73,72.83 54.27,72.92 53.81,72.93L53.69,72.93Z" style="fill-rule:nonzero;"/>
        <path d="M53.8,70.84C52.73,70.84 51.86,69.96 51.87,68.89C51.87,67.82 52.75,66.95 53.82,66.96C54.89,66.96 55.75,67.83 55.75,68.9C55.75,69.97 54.88,70.84 53.8,70.84ZM53.8,67.71C53.14,67.71 52.61,68.25 52.62,68.91C52.62,69.57 53.16,70.1 53.82,70.09C54.47,70.09 55,69.55 55,68.9C55,68.24 54.47,67.71 53.81,67.71L53.8,67.71Z" style="fill-rule:nonzero;"/>
        <path d="M66.83,64.15C66.62,64.15 66.45,63.98 66.45,63.77L66.45,63.58C66.45,63.37 66.62,63.2 66.83,63.2C67.04,63.2 67.21,63.37 67.21,63.58L67.21,63.77C67.21,63.98 67.04,64.15 66.83,64.15Z" style="fill-rule:nonzero;"/>
        <path d="M51.34,75.33C51.13,75.33 50.97,75.16 50.97,74.95C50.97,74.85 51.01,74.75 51.08,74.68L51.22,74.55C51.37,74.41 51.61,74.41 51.75,74.56C51.89,74.71 51.89,74.95 51.74,75.09L51.6,75.22C51.53,75.29 51.44,75.32 51.34,75.33Z" style="fill-rule:nonzero;"/>
    </g>
</svg>
