<?xml version="1.0" encoding="UTF-8" standalone="no"?>
<!DOCTYPE svg PUBLIC "-//W3C//DTD SVG 1.1//EN" "http://www.w3.org/Graphics/SVG/1.1/DTD/svg11.dtd">
<svg width="100%" height="100%" viewBox="0 0 365 365" version="1.1" xmlns="http://www.w3.org/2000/svg" xmlns:xlink="http://www.w3.org/1999/xlink" xml:space="preserve" xmlns:serif="http://www.serif.com/" style="fill-rule:evenodd;clip-rule:evenodd;stroke-linejoin:round;stroke-miterlimit:2;">
    <g transform="matrix(1,0,0,1,-368.28,-357.95)">
        <path d="M550.33,357.95C449.78,357.95 368.28,439.46 368.28,540C368.28,640.54 449.79,722.05 550.33,722.05C650.87,722.05 732.38,640.54 732.38,540C732.38,439.46 650.87,357.95 550.33,357.95ZM716.9,539.7C717.06,631.55 642.47,706.41 550.63,706.57L550.32,706.57C458.64,706.57 383.92,631.98 383.76,540.3C383.68,495.81 400.93,453.95 432.33,422.43C463.73,390.91 505.53,373.51 550.03,373.43L550.34,373.43C642.02,373.43 716.74,448.01 716.9,539.7Z" style="fill:white;fill-rule:nonzero;"/>
        <path d="M647.83,453.89C645.39,453.89 643.07,455.07 641.64,457.05L517.28,628.46C514.58,632.19 514.58,637.19 517.28,640.91L541.17,673.72C543.33,676.68 546.66,678.38 550.33,678.38C554,678.38 557.33,676.68 559.48,673.72L681.22,506.48C683.82,502.91 683.82,498.12 681.22,494.55L654.01,457.05C652.58,455.07 650.26,453.89 647.82,453.89L647.83,453.89Z" style="fill:white;fill-rule:nonzero;"/>
        <path d="M613.5,466.58L617.48,461.1C619.66,458.1 617.51,453.89 613.8,453.89L554.07,453.89C549.13,453.89 544.45,456.28 541.55,460.28L468.3,561.25C465.62,564.95 465.62,569.92 468.3,573.61L492.87,607.36L494.54,609.66L497.78,614.11C499.92,617.06 504.32,617.05 506.46,614.11L511.57,607.09L511.55,607.09L613.49,466.59L613.5,466.58ZM508.3,610.24C508.42,610.16 508.54,610.08 508.66,610C508.54,610.08 508.43,610.16 508.31,610.24L508.3,610.24Z" style="fill:white;fill-rule:nonzero;"/>
        <path d="M516.89,466.58L517.51,465.73L517.63,465.56L520.86,461.1C523.04,458.1 520.89,453.89 517.18,453.89L456.32,453.89C451.69,453.89 447.3,456.13 444.59,459.87L419.43,494.55C416.84,498.12 416.84,502.91 419.43,506.48L444.27,540.61L449.37,547.62C451.51,550.57 455.91,550.56 458.05,547.62L463.16,540.6L516.88,466.59L516.89,466.58Z" style="fill:white;fill-rule:nonzero;"/>
    </g>
</svg>
