<?xml version="1.0" encoding="UTF-8" standalone="no"?>
<!DOCTYPE svg PUBLIC "-//W3C//DTD SVG 1.1//EN" "http://www.w3.org/Graphics/SVG/1.1/DTD/svg11.dtd">
<svg width="100%" height="100%" viewBox="0 0 1184 365" version="1.1" xmlns="http://www.w3.org/2000/svg" xmlns:xlink="http://www.w3.org/1999/xlink" xml:space="preserve" xmlns:serif="http://www.serif.com/" style="fill-rule:evenodd;clip-rule:evenodd;stroke-linejoin:round;stroke-miterlimit:2;">
    <g transform="matrix(1,0,0,1,-368.28,-357.95)">
        <path d="M550.33,357.95C449.78,357.95 368.28,439.46 368.28,540C368.28,640.54 449.79,722.05 550.33,722.05C650.87,722.05 732.38,640.54 732.38,540C732.38,439.46 650.87,357.95 550.33,357.95ZM716.9,539.7C717.06,631.55 642.47,706.41 550.63,706.57L550.32,706.57C458.64,706.57 383.92,631.98 383.76,540.3C383.68,495.81 400.93,453.95 432.33,422.43C463.73,390.91 505.53,373.51 550.03,373.43L550.34,373.43C642.02,373.43 716.74,448.01 716.9,539.7Z" style="fill:white;fill-rule:nonzero;"/>
        <path d="M647.83,453.89C645.39,453.89 643.07,455.07 641.64,457.05L517.28,628.46C514.58,632.19 514.58,637.19 517.28,640.91L541.17,673.72C543.33,676.68 546.66,678.38 550.33,678.38C554,678.38 557.33,676.68 559.48,673.72L681.22,506.48C683.82,502.91 683.82,498.12 681.22,494.55L654.01,457.05C652.58,455.07 650.26,453.89 647.82,453.89L647.83,453.89Z" style="fill:white;fill-rule:nonzero;"/>
        <path d="M613.5,466.58L617.48,461.1C619.66,458.1 617.51,453.89 613.8,453.89L554.07,453.89C549.13,453.89 544.45,456.28 541.55,460.28L468.3,561.25C465.62,564.95 465.62,569.92 468.3,573.61L492.87,607.36L494.54,609.66L497.78,614.11C499.92,617.06 504.32,617.05 506.46,614.11L511.57,607.09L511.55,607.09L613.49,466.59L613.5,466.58ZM508.3,610.24C508.42,610.16 508.54,610.08 508.66,610C508.54,610.08 508.43,610.16 508.31,610.24L508.3,610.24Z" style="fill:white;fill-rule:nonzero;"/>
        <path d="M516.89,466.58L517.51,465.73L517.63,465.56L520.86,461.1C523.04,458.1 520.89,453.89 517.18,453.89L456.32,453.89C451.69,453.89 447.3,456.13 444.59,459.87L419.43,494.55C416.84,498.12 416.84,502.91 419.43,506.48L444.27,540.61L449.37,547.62C451.51,550.57 455.91,550.56 458.05,547.62L463.16,540.6L516.88,466.59L516.89,466.58Z" style="fill:white;fill-rule:nonzero;"/>
        <path d="M1125.78,523.19L1174.24,523.19L1174.24,593.94L1198.44,593.94L1198.44,523.19L1248,523.19L1248,501.91L1125.78,501.91L1125.78,523.19Z" style="fill:white;fill-rule:nonzero;"/>
        <path d="M824.28,518.41L824.28,593.68L848.46,593.68L848.46,563.72L921.69,563.72L921.69,543.67L848.46,543.67L848.46,524.51C848.46,523.64 849.16,522.94 850.03,522.94L945.34,522.94L945.34,501.67L841.01,501.67C831.78,501.67 824.27,509.18 824.27,518.41L824.28,518.41Z" style="fill:white;fill-rule:nonzero;"/>
        <path d="M1535.72,501.91L1429.41,501.91L1429.41,593.94L1453.6,593.94L1453.6,522.97L1525.94,522.97C1526.81,522.97 1527.51,523.68 1527.51,524.55L1527.51,593.91L1551.72,593.91L1551.72,517.91C1551.72,509.07 1544.56,501.91 1535.72,501.91Z" style="fill:white;fill-rule:nonzero;"/>
        <path d="M1383.81,501.92L1287.77,501.92C1277.77,501.92 1269.64,510.05 1269.64,520.05L1269.64,575.81C1269.64,585.81 1277.77,593.94 1287.77,593.94L1383.81,593.94C1393.81,593.94 1401.94,585.81 1401.94,575.81L1401.94,520.05C1401.94,510.05 1393.81,501.92 1383.81,501.92ZM1377.76,524.54L1377.76,571.1C1377.76,571.97 1377.06,572.67 1376.19,572.67L1295.4,572.67C1294.53,572.67 1293.83,571.96 1293.83,571.09L1293.83,524.53C1293.83,523.66 1294.53,522.96 1295.4,522.96L1376.19,522.96C1377.06,522.96 1377.76,523.67 1377.76,524.54Z" style="fill:white;fill-rule:nonzero;"/>
        <path d="M1085.37,501.92L989.33,501.92C979.33,501.92 971.2,510.05 971.2,520.05L971.2,575.81C971.2,585.81 979.33,593.94 989.33,593.94L1085.37,593.94C1095.37,593.94 1103.5,585.81 1103.5,575.81L1103.5,520.05C1103.5,510.05 1095.37,501.92 1085.37,501.92ZM1079.32,524.54L1079.32,571.1C1079.32,571.97 1078.62,572.67 1077.75,572.67L996.96,572.67C996.09,572.67 995.39,571.96 995.39,571.09L995.39,524.53C995.39,523.66 996.09,522.96 996.96,522.96L1077.75,522.96C1078.62,522.96 1079.32,523.67 1079.32,524.54Z" style="fill:white;fill-rule:nonzero;"/>
    </g>
</svg>
