<?xml version="1.0" encoding="UTF-8" standalone="no"?>
<!DOCTYPE svg PUBLIC "-//W3C//DTD SVG 1.1//EN" "http://www.w3.org/Graphics/SVG/1.1/DTD/svg11.dtd">
<svg width="100%" height="100%" viewBox="0 0 1542 530" version="1.1" xmlns="http://www.w3.org/2000/svg" xmlns:xlink="http://www.w3.org/1999/xlink" xml:space="preserve" xmlns:serif="http://www.serif.com/" style="fill-rule:evenodd;clip-rule:evenodd;stroke-linejoin:round;stroke-miterlimit:2;">
    <g transform="matrix(1,0,0,1,-189.4,-275.56)">
        <path d="M1731.35,805.09L189.4,805.09L189.4,275.56L1731.35,275.56L1731.35,805.09ZM209.52,784.97L1711.24,784.97L1711.24,295.68L209.52,295.68L209.52,784.97Z" style="fill:white;fill-rule:nonzero;"/>
        <path d="M551.9,653.15L551.9,422.52L628.44,422.52L657.71,559.18L658.28,559.18L686.67,422.52L760.56,422.52L760.56,653.15L712.07,653.15L715.59,475.9L715.02,475.9L678.3,653.15L636.18,653.15L600.03,475.9L599.44,475.9L601.21,653.15L551.9,653.15Z" style="fill:white;fill-rule:nonzero;"/>
        <path d="M780.44,653.15L830.89,422.52L897.22,422.52L947.16,653.15L891.89,653.15L883.91,609.3L841.28,609.3L834.74,653.15L780.44,653.15ZM864.17,466.25L863.6,466.25L847.77,567.9L878.65,567.9L864.17,466.25Z" style="fill:white;fill-rule:nonzero;"/>
        <path d="M1261.18,653.15L1311.59,422.52L1377.94,422.52L1427.82,653.15L1372.63,653.15L1364.67,609.3L1321.98,609.3L1315.44,653.15L1261.18,653.15ZM1344.88,466.25L1344.33,466.25L1328.48,567.9L1359.36,567.9L1344.88,466.25Z" style="fill:white;fill-rule:nonzero;"/>
        <path d="M1080.12,422.52L1080.12,469.47L1035.56,469.47L1035.56,653.14L981.39,653.14L981.39,469.47L939.41,469.47L939.41,422.52L1080.12,422.52Z" style="fill:white;fill-rule:nonzero;"/>
        <path d="M1154.09,653.15L1100.75,653.15L1100.75,422.52L1182.4,422.52C1212.54,422.52 1245.74,439.2 1245.74,475.19C1245.74,502.11 1244.46,531.22 1218.22,538.37L1218.22,538.96C1232.74,540.14 1245,549.94 1245,591.08C1245,604.52 1245.29,644.32 1254.06,653.14L1194.85,653.14C1191.55,640.21 1191.71,623.51 1191.71,609.74C1191.71,584.57 1195.11,563.2 1163.99,563.2L1154.11,563.2L1154.11,653.14L1154.09,653.15ZM1154.09,520.28L1171.93,520.28C1187.88,520.28 1192.42,503.34 1192.42,490.38C1192.42,470.89 1184.7,463.58 1171.93,463.58L1154.09,463.58L1154.09,520.28Z" style="fill:white;fill-rule:nonzero;"/>
    </g>
</svg>
